<svg xmlns="http://www.w3.org/2000/svg" width="12" height="14" fill="none"><path fill="#000" fill-opacity=".6" d="M11.125 12.062H.875a.125.125 0 0 0-.125.125v.938c0 .068.056.124.125.124h10.25a.125.125 0 0 0 .125-.125v-.937a.125.125 0 0 0-.125-.125Zm0-11.312H.875A.125.125 0 0 0 .75.875v.937c0 .069.056.125.125.125h10.25a.125.125 0 0 0 .125-.125V.875a.125.125 0 0 0-.125-.125ZM7.544 4.906c.094 0 .147-.11.089-.183L6.058 2.729a.112.112 0 0 0-.177 0L4.306 4.723a.113.113 0 0 0 .09.183h1.042v4.187h-.982a.113.113 0 0 0-.089.183l1.575 1.992a.112.112 0 0 0 .177 0l1.575-1.992a.113.113 0 0 0-.09-.183H6.563V4.906h.982Z"/></svg>