<svg xmlns="http://www.w3.org/2000/svg" width="144" height="105" fill="none">
    <defs>
        <linearGradient id="grad1" x1="0%" y1="0%" x2="100%" y2="100%">
            <stop offset="0%" style="stop-color:#FFFFFF;stop-opacity:1" />
            <stop offset="100%" style="stop-color:#FFFFFF;stop-opacity:0.2" />
        </linearGradient>
    </defs>
    <path fill="url(#grad1)" fill-rule="evenodd" d="M31.715 104.193a.056.056 0 0 1-.053-.075L68.425.238A.057.057 0 0 1 68.48.2h39.246c.024 0 .046.015.054.038l36.218 103.88a.057.057 0 0 1-.054.075H31.715ZM.057 104.6a.057.057 0 0 1-.053-.076l27.377-73.09a.057.057 0 0 1 .053-.036H51.22c.04 0 .067.039.053.076l-26.472 73.089a.057.057 0 0 1-.053.037H.057Z" clip-rule="evenodd"/>
</svg>