<svg xmlns="http://www.w3.org/2000/svg" width="146" height="115" fill="none">
    <defs>
        <linearGradient id="grad1" x1="0%" y1="0%" x2="100%" y2="100%">
            <stop offset="0%" style="stop-color:#FFFFFF;stop-opacity:1" />
            <stop offset="100%" style="stop-color:#FFFFFF;stop-opacity:0.2" />
        </linearGradient>
    </defs>
    <path fill="url(#grad1)" fill-rule="evenodd" d="M112.265 54.361a.05.05 0 0 1-.009-.039L121.442.754a.052.052 0 0 1 .051-.043h2.908a.05.05 0 0 1 .048.036l20.698 65.532a.052.052 0 0 1-.018.056l-15.26 11.915a.051.051 0 0 1-.073-.01l-17.531-23.878ZM.851 89.874c0 .022.014.041.035.048l31.458 10.286a.052.052 0 0 0 .045-.006l70.315-48.544a.05.05 0 0 0 .022-.035l7.54-50.595a.05.05 0 0 0-.05-.059H47.934a.051.051 0 0 0-.04.02L.863 57.723a.052.052 0 0 0-.012.033v32.117Zm44.602 12.955 34.366 11.257a.05.05 0 0 0 .046-.007l40.916-29.349a.05.05 0 0 0 .013-.07l-15.338-22.825a.051.051 0 0 0-.072-.014L45.453 102.83Z" clip-rule="evenodd"/>
</svg>