<svg xmlns="http://www.w3.org/2000/svg" width="90" height="145" fill="none">
    <defs>
        <linearGradient id="grad1" x1="0%" y1="0%" x2="100%" y2="100%">
            <stop offset="0%" style="stop-color:#FFFFFF;stop-opacity:1" />
            <stop offset="100%" style="stop-color:#FFFFFF;stop-opacity:0.2" />
        </linearGradient>
    </defs>
    <path fill="url(#grad1)" fill-rule="evenodd" d="M15.867.805a.124.124 0 0 1 .117-.164h50.577c.055 0 .103.035.119.087l23.23 75.054a.124.124 0 0 1-.118.16h-33.67c-.042 0-.072.04-.06.08L75.373 144c.038.132-.135.218-.218.108L.11 44.309a.124.124 0 0 1 .099-.198h30.559a.062.062 0 0 0 .058-.082L15.868.805Z" clip-rule="evenodd"/>
</svg>