<svg xmlns="http://www.w3.org/2000/svg" width="144" height="145" fill="none">
    <defs>
        <linearGradient id="grad1" x1="0%" y1="0%" x2="100%" y2="100%">
            <stop offset="0%" style="stop-color:#FFFFFF;stop-opacity:1" />
            <stop offset="100%" style="stop-color:#FFFFFF;stop-opacity:0.2" />
        </linearGradient>
    </defs>
    <path fill="url(#grad1)" fill-rule="evenodd" d="m28.894 114.584 23.097-6.697 19.949 36.475a.069.069 0 0 0 .12 0l19.949-36.475 23.097 6.697c.052.015.1-.034.084-.085l-6.698-22.64 35.47-19.4a.068.068 0 0 0 0-.119L108.2 52.78l6.99-23.627a.068.068 0 0 0-.084-.085l-23.639 6.854L72.06.438a.068.068 0 0 0-.12 0L52.533 35.923l-23.639-6.855a.068.068 0 0 0-.084.085l6.99 23.628L.038 72.34a.068.068 0 0 0 0 .119l35.47 19.399-6.698 22.64c-.016.051.032.1.084.085Zm17.923-41.935 16.363 8.949 8.949 16.362a.068.068 0 0 0 .12 0l8.949-16.362 16.363-8.95a.068.068 0 0 0 0-.12L81.198 63.58l-8.95-16.363a.068.068 0 0 0-.119 0l-8.95 16.363-16.362 8.949a.068.068 0 0 0 0 .12Z" clip-rule="evenodd"/>
</svg>